<?xml version="1.0" encoding="UTF-8" standalone="no"?>
<svg
   xmlns:dc="http://purl.org/dc/elements/1.1/"
   xmlns:cc="http://creativecommons.org/ns#"
   xmlns:rdf="http://www.w3.org/1999/02/22-rdf-syntax-ns#"
   xmlns:svg="http://www.w3.org/2000/svg"
   xmlns="http://www.w3.org/2000/svg"
   xmlns:sodipodi="http://sodipodi.sourceforge.net/DTD/sodipodi-0.dtd"
   xmlns:inkscape="http://www.inkscape.org/namespaces/inkscape"
   width="64"
   height="32"
   viewBox="0 0 16.933333 8.466667"
   version="1.1"
   id="svg8"
   inkscape:version="1.0.1 (3bc2e813f5, 2020-09-07)"
   sodipodi:docname="enemy.svg"
   inkscape:export-filename="/home/sachintha/Desktop/js13k_2020/assets/enemy.png"
   inkscape:export-xdpi="96"
   inkscape:export-ydpi="96">
  <defs
     id="defs2" />
  <sodipodi:namedview
     id="base"
     pagecolor="#ffffff"
     bordercolor="#666666"
     borderopacity="1.0"
     inkscape:pageopacity="0.0"
     inkscape:pageshadow="2"
     inkscape:zoom="6.1305442"
     inkscape:cx="27.274419"
     inkscape:cy="19.980299"
     inkscape:document-units="mm"
     inkscape:current-layer="g2235"
     inkscape:document-rotation="0"
     showgrid="false"
     units="px"
     inkscape:window-width="1366"
     inkscape:window-height="713"
     inkscape:window-x="0"
     inkscape:window-y="27"
     inkscape:window-maximized="1" />
  <metadata
     id="metadata5">
    <rdf:RDF>
      <cc:Work
         rdf:about="">
        <dc:format>image/svg+xml</dc:format>
        <dc:type
           rdf:resource="http://purl.org/dc/dcmitype/StillImage" />
        <dc:title />
      </cc:Work>
    </rdf:RDF>
  </metadata>
  <g
     inkscape:groupmode="layer"
     id="layer3"
     inkscape:label="Layer 2"
     style="display:inline">
    <g
       id="g2242"
       transform="matrix(0.65289039,0,0,0.64353664,-2.6157856,-1.1275608)">
      <rect
         style="display:inline;opacity:0.972092;fill:#e6e6e6;stroke:none;stroke-width:0.943179"
         id="rect1646"
         width="24.052401"
         height="1.9557692"
         x="5.0307217"
         y="8.5254374" />
      <ellipse
         style="display:inline;opacity:0.972092;fill:#ff7f00;fill-opacity:1;stroke:none;stroke-width:1.13439"
         id="path2237"
         cx="16.941662"
         cy="11.888699"
         rx="4.5971904"
         ry="2.2186177" />
    </g>
  </g>
  <g
     inkscape:groupmode="layer"
     id="layer4"
     inkscape:label="Layer 3"
     style="display:inline">
    <g
       id="g2235"
       transform="matrix(0.63807705,0,0,0.63807705,-2.3118883,-1.1207875)"
       style="stroke-width:0.99987925;stroke-miterlimit:4;stroke-dasharray:none">
      <path
         style="display:inline;fill:#521414;stroke:none;stroke-width:0.99987925;stroke-miterlimit:4;stroke-dasharray:none;stroke-opacity:1;fill-opacity:1"
         d="m 7.6632598,6.9968015 -1.0536,-1.906514 -0.250857,0.100343 0.852914,2.006856 c -0.919562,0.163409 -2.077071,0.880057 -2.704572,1.555515 -0.336751,0.362488 -0.552743,0.887482 -0.287286,1.3544275 0.64063,1.126898 2.528023,1.568557 3.694258,1.84455 5.2091452,1.232962 10.7845432,1.164327 16.0548492,0.406589 1.705476,-0.245238 4.067847,-0.632812 5.36814,-1.854285 1.366268,-1.2834835 -0.80199,-2.5313465 -1.856142,-2.9987435 -0.261593,-0.116047 -0.519474,-0.257731 -0.802742,-0.308053 l 0.852914,-2.006856 -0.250857,-0.100343 -1.0536,1.906514 c -1.317551,-0.428715 -2.81577,-0.97453 -4.214398,-1.003428 -0.133657,-0.891747 -0.944979,-1.7073331 -1.655657,-2.1902831 -1.878768,-1.276762 -4.574378,-1.36682 -6.522283,-0.164512 -0.564378,0.34834 -1.09469,0.797825 -1.467564,1.3513661 -0.173241,0.257229 -0.310561,0.840271 -0.596136,0.975132 -0.372071,0.17575 -0.895761,0.170783 -1.297784,0.261594 -0.9526036,0.215285 -1.8806292,0.467848 -2.8095972,0.770131 m -1.755072,1.836474 c 0.500129,-0.188193 0.789819,0.573058 0.297893,0.771235 -0.505341,0.203595 -0.812124,-0.577724 -0.297893,-0.771235 m 2.408268,0 c 0.5150796,-0.195016 0.8162736,0.587557 0.2991316,0.777005 -0.4958736,0.18167 -0.7798336,-0.594983 -0.2991316,-0.777005 m 2.4581822,-0.0083 c 0.550481,-0.147604 0.749912,0.671996 0.199732,0.800033 -0.50352,0.117201 -0.693168,-0.667781 -0.199732,-0.800033 m 2.409632,0 c 0.528707,-0.145696 0.765867,0.643099 0.246693,0.797426 -0.504975,0.150063 -0.756534,-0.656995 -0.246693,-0.797424 m 2.407024,0.0083 c 0.500108,-0.188193 0.789798,0.573057 0.297867,0.771234 -0.503269,0.202743 -0.804699,-0.580483 -0.297867,-0.771234 m 2.409482,0 c 0.513253,-0.19833 0.814231,0.587856 0.297867,0.777003 -0.497449,0.182272 -0.773643,-0.593127 -0.297867,-0.777005 m 2.456944,-0.0083 c 0.550531,-0.147604 0.749912,0.671996 0.199732,0.800033 -0.50352,0.117201 -0.693168,-0.667781 -0.199732,-0.800033 m 2.409632,0 c 0.527201,-0.145296 0.773091,0.653633 0.247947,0.79617 -0.505677,0.137219 -0.759595,-0.655238 -0.247947,-0.79617 m 2.407024,0.0083 c 0.500108,-0.188193 0.789798,0.573058 0.297867,0.771235 -0.503269,0.202743 -0.804699,-0.580483 -0.297867,-0.771235 m 2.409481,0 c 0.513254,-0.198328 0.814232,0.587858 0.297868,0.777005 -0.4975,0.182272 -0.773643,-0.593127 -0.297868,-0.777005 z"
         id="path1641" />
      <ellipse
         style="display:inline;opacity:0.972092;fill:#ff7f00;fill-opacity:1;stroke:none;stroke-width:0.99987925;stroke-miterlimit:4;stroke-dasharray:none"
         id="path2213"
         cx="6.2676706"
         cy="4.7334709"
         rx="0.47459182"
         ry="0.45332515" />
      <ellipse
         style="display:inline;opacity:0.972092;fill:#ff7f00;fill-opacity:1;stroke:none;stroke-width:0.99987925;stroke-miterlimit:4;stroke-dasharray:none"
         id="path2213-3"
         cx="27.630079"
         cy="4.7253275"
         rx="0.47459182"
         ry="0.45332515" />
    </g>
  </g>
</svg>
